<svg width="30" height="30" viewBox="0 0 30 30" fill="none" xmlns="http://www.w3.org/2000/svg">
<path fill-rule="evenodd" clip-rule="evenodd" d="M15 29.5C23.0081 29.5 29.5 23.0081 29.5 15C29.5 6.99187 23.0081 0.5 15 0.5C6.99187 0.5 0.5 6.99187 0.5 15C0.5 23.0081 6.99187 29.5 15 29.5Z" fill="black"/>
<mask id="mask0" mask-type="alpha" maskUnits="userSpaceOnUse" x="0" y="0" width="30" height="30">
<path fill-rule="evenodd" clip-rule="evenodd" d="M15 29.5C23.0081 29.5 29.5 23.0081 29.5 15C29.5 6.99187 23.0081 0.5 15 0.5C6.99187 0.5 0.5 6.99187 0.5 15C0.5 23.0081 6.99187 29.5 15 29.5Z" fill="white"/>
</mask>
<g mask="url(#mask0)">
<rect x="0.5" y="0.5" width="29" height="9.66667" fill="black"/>
<rect x="0.5" y="10.1667" width="29" height="9.66667" fill="#D51C1C"/>
<rect x="0.5" y="19.8333" width="29" height="9.66667" fill="#F5B622"/>
</g>
<g opacity="0.2">
<path fill-rule="evenodd" clip-rule="evenodd" d="M15 29.5C23.0081 29.5 29.5 23.0081 29.5 15C29.5 6.99187 23.0081 0.5 15 0.5C6.99187 0.5 0.5 6.99187 0.5 15C0.5 23.0081 6.99187 29.5 15 29.5Z" fill="url(#paint0_linear)" fill-opacity="0.15"/>
<path d="M29.25 15C29.25 22.8701 22.8701 29.25 15 29.25C7.12994 29.25 0.75 22.8701 0.75 15C0.75 7.12994 7.12994 0.75 15 0.75C22.8701 0.75 29.25 7.12994 29.25 15Z" stroke="black" stroke-opacity="0.25" stroke-width="0.5"/>
</g>
<mask id="mask1" mask-type="alpha" maskUnits="userSpaceOnUse" x="0" y="0" width="30" height="30">
<path fill-rule="evenodd" clip-rule="evenodd" d="M15 29.5C23.0081 29.5 29.5 23.0081 29.5 15C29.5 6.99187 23.0081 0.5 15 0.5C6.99187 0.5 0.5 6.99187 0.5 15C0.5 23.0081 6.99187 29.5 15 29.5Z" fill="white"/>
<path d="M29.25 15C29.25 22.8701 22.8701 29.25 15 29.25C7.12994 29.25 0.75 22.8701 0.75 15C0.75 7.12994 7.12994 0.75 15 0.75C22.8701 0.75 29.25 7.12994 29.25 15Z" stroke="white" stroke-width="0.5"/>
</mask>
<g mask="url(#mask1)">
</g>
<defs>
<linearGradient id="paint0_linear" x1="0.5" y1="0.5" x2="0.5" y2="29.5" gradientUnits="userSpaceOnUse">
<stop stop-color="white"/>
<stop offset="1" stop-color="white" stop-opacity="0.01"/>
</linearGradient>
</defs>
</svg>
