<svg width="37" height="37" viewBox="0 0 37 37" fill="none" xmlns="http://www.w3.org/2000/svg">
<path fill-rule="evenodd" clip-rule="evenodd" d="M18.5 37C28.7173 37 37 28.7173 37 18.5C37 8.28273 28.7173 0 18.5 0C8.28273 0 0 8.28273 0 18.5C0 28.7173 8.28273 37 18.5 37Z" fill="white"/>
<path d="M29 23.5V19C29 16.2386 26.7614 14 24 14V14C21.2386 14 19 16.2386 19 19V19.25C19 21.8734 16.8734 24 14.25 24V24C11.6266 24 9.5 21.8734 9.5 19.25V14.5" stroke="#1A98FF" stroke-linecap="round" stroke-linejoin="round"/>
<path d="M25.75 20.75L29 24L32.25 20.75" stroke="#1A98FF" stroke-linecap="round" stroke-linejoin="round"/>
<path d="M6.25 16.25L9.5 13.5L12.75 16.25" stroke="#1A98FF" stroke-linecap="round" stroke-linejoin="round"/>
</svg>
